<svg xmlns="http://www.w3.org/2000/svg" viewBox="0 0 50 20"><defs><style>.cls-1{fill:#007cc2;}.cls-2{fill:#fff;}.cls-3{fill:#aeddeb;}</style></defs><g id="Calque_2" data-name="Calque 2"><g id="Calque_1-2" data-name="Calque 1"><path class="cls-1" d="M10.53,0H1.09A1,1,0,0,0,.1.93v14.4L3,12.08l1.17,1.7,6-6.15L15,13.34l2.27-1.49,3.13,4.08V9.37A9.65,9.65,0,0,0,10.53,0Z"/><polygon class="cls-2" points="10.27 1.04 10.8 2.59 12.52 2.59 11.13 3.54 11.66 5.09 10.27 4.13 8.88 5.09 9.41 3.54 8.02 2.59 9.74 2.59 10.27 1.04"/><polygon class="cls-2" points="5.6 5.71 5.92 6.65 6.97 6.65 6.12 7.23 6.45 8.18 5.6 7.59 4.75 8.18 5.07 7.23 4.22 6.65 5.27 6.65 5.6 5.71"/><polygon class="cls-2" points="14.95 5.71 15.27 6.65 16.32 6.65 15.47 7.23 15.79 8.18 14.95 7.59 14.1 8.18 14.42 7.23 13.57 6.65 14.62 6.65 14.95 5.71"/><path class="cls-3" d="M20.44,18.33a16.54,16.54,0,0,0-10.17-3.44A16.55,16.55,0,0,0,0,18.4V20H20.44Z"/><path class="cls-3" d="M21.16,10.18,21.74,9a4.56,4.56,0,0,0,2.45.73c1,0,1.42-.32,1.42-.75,0-1.31-4.3-.41-4.3-3,0-1.19,1-2.17,3.12-2.17A5.31,5.31,0,0,1,27,4.37L26.47,5.6a4.35,4.35,0,0,0-2-.55c-1,0-1.41.36-1.41.8,0,1.29,4.31.4,4.31,3,0,1.17-1,2.17-3.14,2.17A5.52,5.52,0,0,1,21.16,10.18Z"/><path class="cls-3" d="M34.16,10.61a2.47,2.47,0,0,1-1.34.34c-1.35,0-2.13-.65-2.13-1.93V6.81h-.88V5.61h.88V4.3h1.65V5.61h1.42v1.2H32.34V9a.65.65,0,0,0,.71.71,1.18,1.18,0,0,0,.67-.2Z"/><path class="cls-3" d="M42.24,7.8v3.07H40.69V10.2A1.89,1.89,0,0,1,39,11c-1.33,0-2.12-.7-2.12-1.63s.7-1.61,2.44-1.61h1.31c0-.67-.42-1.06-1.31-1.06a2.82,2.82,0,0,0-1.64.5l-.59-1.09a4.54,4.54,0,0,1,2.45-.65C41.23,5.41,42.24,6.17,42.24,7.8ZM40.59,9.17V8.62H39.46c-.77,0-1,.27-1,.63s.35.65.93.65A1.23,1.23,0,0,0,40.59,9.17Z"/><path class="cls-3" d="M49.38,5.41V6.85l-.37,0a1.36,1.36,0,0,0-1.52,1.5v2.54H45.84V5.49h1.58V6.2A2.36,2.36,0,0,1,49.38,5.41Z"/><path class="cls-3" d="M27.52,12.87v7h-.69V16.64H22.66v3.23H22v-7h.71V16h4.17V12.87Z"/><path class="cls-3" d="M29,17.24a2.55,2.55,0,1,1,5.09,0,2.55,2.55,0,1,1-5.09,0Zm4.41,0a1.87,1.87,0,1,0-3.72,0,1.87,1.87,0,1,0,3.72,0Z"/><path class="cls-3" d="M43.78,16.82v3.05H43.1v-3c0-1.11-.53-1.68-1.44-1.68s-1.67.7-1.67,1.9v2.76h-.68v-3c0-1.11-.53-1.68-1.44-1.68s-1.68.7-1.68,1.9v2.76h-.68V14.61h.65v1a2,2,0,0,1,1.84-1,1.79,1.79,0,0,1,1.78,1.11,2.15,2.15,0,0,1,2-1.11C43,14.57,43.78,15.31,43.78,16.82Z"/><path class="cls-3" d="M50,17.46H45.8a1.89,1.89,0,0,0,2,1.83,2,2,0,0,0,1.54-.69l.38.46a2.43,2.43,0,0,1-1.94.86,2.54,2.54,0,0,1-2.62-2.68,2.45,2.45,0,1,1,4.87,0C50,17.3,50,17.38,50,17.46Zm-4.19-.53h3.55a1.78,1.78,0,0,0-3.55,0Z"/></g></g></svg>